<svg id="svg" version="1.1" width="800" height="606" xmlns="http://www.w3.org/2000/svg">
<path d="M322.000 47.613 C 312.925 48.358,304.375 49.499,303.000 50.148 C 301.625 50.798,298.250 51.650,295.500 52.042 C 289.825 52.851,284.485 54.614,275.000 58.811 C 260.202 65.359,252.570 69.217,247.186 72.874 C 243.844 75.143,240.700 77.000,240.199 77.000 C 239.699 77.000,236.187 79.779,232.395 83.175 C 217.949 96.113,208.642 105.795,202.762 114.000 C 199.412 118.675,195.899 123.400,194.956 124.500 C 194.013 125.600,191.697 129.446,189.809 133.047 C 187.920 136.648,184.983 141.617,183.282 144.090 C 181.580 146.563,179.652 150.580,178.996 153.017 C 178.339 155.453,177.011 159.034,176.043 160.973 C 175.076 162.913,173.500 166.075,172.542 168.000 C 170.584 171.933,165.817 186.158,164.165 193.000 C 159.605 211.874,158.925 218.558,158.504 248.703 C 158.305 262.974,157.717 274.685,157.149 275.703 C 156.445 276.965,153.965 277.857,148.823 278.700 C 127.249 282.233,121.493 284.377,105.703 294.758 C 92.845 303.211,85.145 312.268,77.441 328.000 C 74.344 334.325,71.402 340.281,70.905 341.236 C 70.407 342.191,69.993 344.891,69.985 347.236 C 69.977 349.581,69.321 353.300,68.529 355.500 C 66.442 361.293,66.428 398.544,68.511 405.409 C 69.330 408.109,70.000 411.990,70.000 414.035 C 70.000 416.079,71.125 420.295,72.500 423.404 C 73.875 426.513,75.000 429.664,75.000 430.406 C 75.000 431.148,75.675 432.315,76.500 433.000 C 77.325 433.685,78.008 435.202,78.017 436.372 C 78.038 439.039,85.737 453.482,90.737 460.233 C 100.055 472.814,124.000 494.272,124.000 490.041 C 124.000 489.548,122.875 488.260,121.500 487.179 C 120.125 486.097,119.000 484.714,119.000 484.106 C 119.000 483.498,118.322 483.000,117.493 483.000 C 115.626 483.000,97.846 465.162,92.740 458.166 C 90.672 455.332,87.459 449.973,85.599 446.257 C 81.006 437.080,80.403 435.528,80.115 432.143 C 80.049 431.365,79.360 431.032,78.500 431.362 C 77.342 431.806,77.000 431.135,77.000 428.419 C 77.000 426.484,76.220 423.461,75.266 421.700 C 72.453 416.508,70.863 403.822,70.344 382.421 C 69.950 366.209,70.159 361.174,71.428 356.277 C 72.293 352.941,73.000 348.858,73.000 347.205 C 73.000 344.138,76.176 336.395,79.181 332.135 C 80.098 330.835,80.632 329.205,80.367 328.514 C 79.879 327.242,83.369 321.161,86.688 317.502 C 87.685 316.403,90.527 312.980,93.004 309.894 C 98.179 303.449,102.029 300.036,107.000 297.486 C 111.566 295.143,116.294 291.822,117.300 290.250 C 117.740 289.562,119.175 289.000,120.491 289.000 C 121.806 289.000,123.129 288.600,123.432 288.110 C 123.734 287.621,125.448 286.984,127.241 286.694 C 129.033 286.403,132.525 285.633,135.000 284.982 C 144.216 282.557,146.637 282.064,152.262 281.466 C 161.049 280.531,161.221 279.954,161.493 250.538 C 161.615 237.317,162.204 223.125,162.802 219.000 C 163.400 214.875,164.185 208.800,164.547 205.500 C 164.909 202.200,167.019 193.875,169.235 187.000 C 173.180 174.766,174.992 170.233,179.680 160.865 C 180.956 158.315,182.000 155.338,182.000 154.250 C 182.000 153.161,182.900 151.126,184.000 149.727 C 185.100 148.329,186.000 146.490,186.000 145.642 C 186.000 144.794,186.602 143.740,187.338 143.300 C 188.074 142.860,189.806 140.025,191.185 137.000 C 192.565 133.975,195.338 129.545,197.347 127.155 C 199.356 124.766,201.000 122.263,201.000 121.592 C 201.000 120.922,202.362 119.070,204.026 117.475 C 205.690 115.881,206.813 113.956,206.522 113.198 C 205.626 110.862,207.107 109.769,208.564 111.690 C 209.859 113.397,209.938 113.374,209.968 111.271 C 209.989 109.789,213.273 105.853,219.750 99.543 C 235.903 83.807,236.976 82.867,238.048 83.530 C 238.713 83.941,238.849 83.248,238.432 81.584 C 237.881 79.388,238.116 79.000,239.999 79.000 C 241.557 79.000,242.043 79.445,241.638 80.500 C 241.322 81.325,241.499 82.000,242.031 82.000 C 242.564 82.000,243.000 81.388,243.000 80.639 C 243.000 77.791,257.719 69.145,270.500 64.484 C 273.250 63.481,276.210 62.062,277.079 61.331 C 277.947 60.599,279.383 60.000,280.270 60.000 C 281.156 60.000,282.160 59.550,282.500 59.000 C 282.840 58.450,284.441 58.000,286.059 58.000 C 287.677 58.000,289.000 57.550,289.000 57.000 C 289.000 56.450,290.027 56.000,291.282 56.000 C 292.537 56.000,296.025 55.317,299.032 54.483 C 315.802 49.831,345.492 48.463,374.225 51.019 C 381.526 51.668,388.235 52.593,389.134 53.073 C 390.032 53.553,394.082 54.430,398.134 55.022 C 402.185 55.614,406.400 56.474,407.500 56.935 C 408.600 57.395,411.525 58.322,414.000 58.993 C 420.503 60.759,425.838 62.791,431.251 65.565 C 433.863 66.904,436.910 68.000,438.020 68.000 C 439.131 68.000,441.741 69.074,443.819 70.386 C 445.898 71.698,449.950 73.783,452.825 75.020 C 455.699 76.256,458.377 77.832,458.775 78.522 C 459.174 79.211,461.383 80.838,463.685 82.138 C 465.986 83.437,469.523 85.850,471.544 87.500 C 482.992 96.846,486.891 100.122,490.445 103.382 C 492.615 105.372,494.741 107.000,495.170 107.000 C 495.598 107.000,496.686 108.463,497.586 110.250 C 498.487 112.037,500.460 114.850,501.970 116.500 C 507.051 122.050,521.544 143.638,523.673 148.826 C 524.502 150.847,526.532 155.273,528.184 158.663 L 531.189 164.826 529.269 167.663 C 528.213 169.223,525.873 172.665,524.069 175.311 C 522.265 177.957,521.042 180.375,521.351 180.684 C 521.660 180.994,520.808 182.696,519.457 184.468 C 518.106 186.239,517.000 187.988,517.000 188.353 C 517.000 188.718,515.650 190.881,514.000 193.159 C 512.350 195.436,511.000 197.730,511.000 198.256 C 511.000 198.781,509.875 200.548,508.500 202.182 C 507.125 203.816,506.000 205.957,506.000 206.939 C 506.000 207.921,504.676 210.392,503.057 212.429 C 501.438 214.466,500.342 216.728,500.621 217.456 C 500.901 218.184,500.088 219.927,498.815 221.329 C 493.751 226.905,492.000 229.391,492.000 231.003 C 492.000 231.931,491.100 233.505,490.000 234.500 C 488.900 235.495,488.000 236.740,488.000 237.266 C 488.000 238.943,480.729 253.000,479.861 253.000 C 479.402 253.000,478.329 254.671,477.475 256.713 C 476.622 258.756,475.269 261.151,474.468 262.035 C 473.668 262.920,471.416 266.761,469.464 270.572 C 465.280 278.741,464.278 280.457,461.141 284.828 C 459.843 286.636,459.035 288.368,459.345 288.678 C 459.654 288.988,458.353 291.276,456.454 293.764 C 454.554 296.252,453.000 298.650,453.000 299.094 C 453.000 299.537,451.650 301.900,450.000 304.345 C 448.350 306.790,447.000 309.486,447.000 310.336 C 447.000 311.186,446.522 312.177,445.938 312.538 C 445.354 312.899,444.445 314.163,443.918 315.347 C 443.391 316.531,441.640 319.525,440.026 322.000 C 438.412 324.475,436.021 328.525,434.713 331.000 C 433.405 333.475,430.010 339.458,427.168 344.296 C 424.325 349.133,422.000 353.691,422.000 354.423 C 422.000 355.156,421.325 356.315,420.500 357.000 C 419.675 357.685,419.000 359.074,419.000 360.087 C 419.000 361.101,418.177 362.370,417.171 362.908 C 416.166 363.447,413.429 367.850,411.091 372.693 C 408.752 377.537,406.048 382.400,405.081 383.500 C 404.114 384.600,400.531 390.523,397.119 396.663 C 393.707 402.802,390.259 408.370,389.458 409.035 C 388.656 409.700,388.000 411.029,388.000 411.988 C 388.000 412.946,387.100 414.874,386.000 416.273 C 384.900 417.671,384.000 419.497,384.000 420.331 C 384.000 421.165,382.909 423.143,381.576 424.727 C 378.743 428.094,374.000 436.743,374.000 438.542 C 374.000 439.226,373.325 440.045,372.500 440.362 C 371.675 440.678,371.000 441.592,371.000 442.392 C 371.000 443.192,369.988 445.122,368.750 446.681 C 365.832 450.358,364.241 452.912,362.948 456.000 C 360.564 461.695,356.645 468.659,354.507 471.000 C 353.252 472.375,351.890 474.625,351.481 476.000 C 351.072 477.375,349.897 479.694,348.869 481.154 C 347.841 482.614,347.000 484.068,347.000 484.385 C 347.000 484.702,345.335 487.557,343.301 490.731 C 341.266 493.904,338.345 499.087,336.808 502.250 L 334.015 508.000 323.008 508.000 C 314.325 508.000,312.000 507.709,312.000 506.622 C 312.000 505.865,312.672 504.687,313.493 504.006 C 314.314 503.325,315.485 500.907,316.096 498.634 C 316.707 496.360,317.579 494.268,318.034 493.984 C 318.795 493.509,320.789 489.995,327.956 476.500 C 331.593 469.652,333.200 466.924,335.250 464.122 C 336.212 462.807,337.000 461.046,337.000 460.210 C 337.000 459.373,338.024 457.296,339.275 455.594 C 340.526 453.892,342.860 450.025,344.461 447.000 C 346.062 443.975,348.953 439.025,350.884 436.000 C 352.816 432.975,354.457 429.711,354.532 428.746 C 354.606 427.782,356.091 425.008,357.833 422.583 C 359.575 420.157,361.000 417.932,361.000 417.637 C 361.000 417.342,362.350 415.100,364.000 412.655 C 365.650 410.210,367.000 407.698,367.000 407.071 C 367.000 406.064,371.108 398.892,382.592 379.849 C 384.466 376.741,386.000 373.534,386.000 372.722 C 386.000 371.909,386.675 370.685,387.500 370.000 C 388.325 369.315,389.000 367.937,389.000 366.937 C 389.000 365.936,389.450 364.840,390.000 364.500 C 390.550 364.160,391.000 363.186,391.000 362.335 C 391.000 361.484,392.194 359.848,393.654 358.700 C 395.114 357.552,398.051 352.987,400.181 348.556 C 404.008 340.597,406.638 335.871,409.954 331.000 C 410.890 329.625,412.185 326.965,412.832 325.089 C 413.479 323.213,415.177 320.145,416.606 318.272 C 419.572 314.384,425.793 302.572,426.160 300.131 C 426.667 296.765,424.974 293.031,422.735 292.578 C 421.506 292.329,411.725 291.889,401.000 291.600 C 382.999 291.115,381.185 291.227,377.404 293.052 C 373.561 294.907,371.000 298.284,371.000 301.497 C 371.000 302.269,370.292 303.297,369.427 303.781 C 368.561 304.265,367.324 305.578,366.677 306.699 C 366.029 307.819,364.625 309.975,363.555 311.489 C 362.476 313.017,361.653 315.748,361.706 317.622 C 361.761 319.555,361.310 321.003,360.651 321.007 C 359.146 321.016,355.000 327.132,355.000 329.343 C 355.000 330.289,354.334 331.318,353.520 331.631 C 351.604 332.366,348.008 338.191,347.972 340.618 C 347.957 341.653,346.607 344.268,344.972 346.428 C 343.337 348.589,342.000 351.301,342.000 352.456 C 342.000 353.611,341.212 355.299,340.250 356.207 C 337.292 359.000,336.353 360.456,335.614 363.403 C 335.222 364.963,333.604 367.873,332.017 369.870 C 330.431 371.866,326.629 378.450,323.568 384.500 C 320.507 390.550,317.102 396.247,316.001 397.160 C 314.901 398.073,314.000 399.509,314.000 400.350 C 314.000 402.193,308.741 412.524,306.597 414.893 C 304.751 416.933,299.030 428.046,299.013 429.628 C 299.006 430.248,298.347 431.297,297.550 431.959 C 295.838 433.379,291.186 441.638,288.512 448.000 C 287.472 450.475,285.173 454.325,283.402 456.557 C 279.761 461.145,276.000 467.531,276.000 469.126 C 276.000 469.712,274.988 471.601,273.750 473.325 C 270.889 477.310,270.062 478.754,265.058 488.500 C 262.798 492.900,260.066 497.850,258.986 499.500 C 257.906 501.150,256.705 503.175,256.317 504.000 C 254.563 507.733,253.343 508.000,238.071 508.000 C 229.782 508.000,223.000 507.757,223.000 507.460 C 223.000 506.676,227.321 500.631,228.500 499.765 C 229.050 499.361,229.201 499.024,228.836 499.015 C 227.797 498.991,234.794 486.086,236.977 484.000 C 237.987 483.035,240.043 479.461,241.876 475.486 C 242.894 473.278,244.463 470.860,245.363 470.113 C 246.264 469.366,247.000 468.342,247.000 467.837 C 247.000 467.332,247.830 465.700,248.844 464.210 C 249.858 462.719,251.948 459.475,253.489 457.000 C 255.030 454.525,257.934 450.025,259.943 447.000 C 261.952 443.975,265.198 438.350,267.157 434.500 C 269.115 430.650,271.887 425.778,273.316 423.674 C 274.744 421.570,276.188 418.983,276.524 417.924 C 276.860 416.866,277.551 416.000,278.059 416.000 C 278.567 416.000,280.357 413.565,282.036 410.590 C 283.716 407.614,285.688 404.950,286.419 404.670 C 287.149 404.389,288.054 402.525,288.429 400.527 C 288.804 398.529,289.719 396.661,290.464 396.376 C 291.208 396.090,292.363 394.539,293.030 392.928 C 293.697 391.318,294.591 390.000,295.017 390.000 C 295.442 390.000,297.686 386.288,300.003 381.750 C 302.319 377.212,304.514 373.275,304.881 373.000 C 305.247 372.725,306.394 371.150,307.431 369.500 C 308.467 367.850,309.919 366.140,310.657 365.700 C 311.396 365.260,312.000 364.005,312.000 362.910 C 312.000 361.815,312.839 359.700,313.865 358.210 C 318.251 351.838,323.609 343.309,325.000 340.483 C 325.825 338.807,327.738 335.833,329.250 333.874 C 330.762 331.914,332.000 329.879,332.000 329.351 C 332.000 328.823,333.622 326.621,335.603 324.457 C 337.585 322.293,339.342 319.843,339.508 319.011 C 340.130 315.900,345.568 306.433,347.743 304.677 C 350.914 302.117,350.802 296.711,347.509 293.418 C 345.131 291.040,344.621 290.952,336.259 291.485 C 331.441 291.792,320.779 292.210,312.565 292.414 C 299.605 292.736,297.457 293.022,296.315 294.583 C 295.592 295.573,295.000 296.694,295.000 297.074 C 295.000 297.455,294.131 297.994,293.069 298.272 C 291.846 298.592,290.747 300.227,290.073 302.730 C 289.487 304.904,288.169 307.442,287.143 308.371 C 286.117 309.299,284.471 311.846,283.487 314.030 C 282.502 316.213,281.322 318.000,280.865 318.000 C 279.863 318.000,275.754 326.014,274.036 331.320 C 273.355 333.421,272.207 335.367,271.483 335.645 C 269.871 336.263,261.970 348.550,258.715 355.500 C 257.942 357.150,256.565 359.118,255.655 359.872 C 254.745 360.627,254.000 361.810,254.000 362.500 C 254.000 363.190,253.325 364.315,252.500 365.000 C 251.675 365.685,251.000 367.288,251.000 368.563 C 251.000 369.839,250.525 371.175,249.945 371.534 C 248.416 372.479,238.747 387.655,235.999 393.423 C 234.710 396.131,232.834 399.166,231.831 400.169 C 229.854 402.146,226.000 408.902,226.000 410.391 C 226.000 410.897,224.875 412.786,223.500 414.589 C 222.125 416.392,221.000 418.291,221.000 418.811 C 221.000 419.330,220.348 420.297,219.550 420.958 C 218.753 421.620,217.089 424.263,215.853 426.831 C 214.617 429.399,211.537 434.425,209.009 438.000 C 206.480 441.575,203.789 446.075,203.027 448.000 C 202.266 449.925,200.455 453.075,199.004 455.000 C 195.401 459.777,190.347 468.233,188.610 472.391 C 187.821 474.280,186.247 476.753,185.113 477.887 C 183.979 479.021,181.445 482.998,179.483 486.725 C 174.615 495.969,171.598 501.402,171.000 502.000 C 170.725 502.275,169.988 503.400,169.362 504.500 C 168.727 505.615,167.400 506.373,166.362 506.212 C 159.582 505.165,157.585 504.665,155.192 503.417 C 153.711 502.644,152.218 502.010,151.874 502.006 C 151.530 502.003,145.981 499.487,139.543 496.415 C 128.636 491.211,124.632 490.164,128.060 493.413 C 129.781 495.045,146.445 503.492,150.000 504.536 C 151.375 504.939,153.388 505.884,154.473 506.635 C 155.557 507.386,157.717 508.000,159.272 508.000 C 160.827 508.000,163.459 508.703,165.121 509.563 C 169.280 511.713,170.017 511.047,175.700 500.000 C 176.690 498.075,177.804 496.269,178.174 495.988 C 178.545 495.706,180.706 491.881,182.976 487.488 C 185.245 483.094,187.661 479.050,188.344 478.500 C 189.028 477.950,191.008 474.748,192.745 471.384 C 194.482 468.020,197.950 462.278,200.452 458.624 C 202.953 454.970,205.000 451.476,205.000 450.860 C 205.000 450.243,206.466 447.660,208.257 445.119 C 210.049 442.579,212.821 438.025,214.419 435.000 C 216.016 431.975,218.527 427.700,220.000 425.500 C 226.831 415.294,232.000 406.409,232.000 404.872 C 232.000 404.315,233.800 401.724,236.000 399.115 C 238.200 396.506,240.000 393.861,240.000 393.238 C 240.000 392.615,242.636 387.919,245.858 382.802 C 249.080 377.686,252.964 371.025,254.490 368.000 C 256.015 364.975,257.564 362.275,257.933 362.000 C 258.840 361.324,265.000 352.041,265.000 351.351 C 265.000 350.609,272.001 339.002,273.957 336.500 C 274.817 335.400,276.402 332.700,277.478 330.500 C 278.554 328.300,281.973 322.450,285.075 317.500 C 288.177 312.550,291.638 306.700,292.766 304.500 C 293.894 302.300,296.096 299.299,297.658 297.831 L 300.500 295.162 321.500 294.976 C 346.900 294.751,344.696 294.563,346.037 297.069 C 346.968 298.809,346.517 300.123,343.206 305.319 C 341.040 308.719,337.872 314.005,336.166 317.066 C 334.459 320.128,332.149 323.460,331.032 324.471 C 329.914 325.483,329.000 326.712,329.000 327.204 C 329.000 327.695,326.733 331.788,323.962 336.299 C 317.907 346.154,309.356 359.923,308.000 362.000 C 307.462 362.825,306.104 365.075,304.982 367.000 C 303.861 368.925,302.068 371.850,300.998 373.500 C 299.929 375.150,297.861 378.731,296.404 381.459 C 294.947 384.186,292.074 388.693,290.019 391.474 C 287.965 394.255,285.931 397.642,285.500 399.001 C 285.069 400.359,283.466 403.053,281.939 404.986 C 280.412 406.918,278.338 409.889,277.331 411.587 C 276.324 413.285,273.250 418.360,270.500 422.864 C 267.750 427.369,264.375 433.193,263.000 435.808 C 261.625 438.422,257.832 444.598,254.571 449.531 C 244.503 464.762,244.000 465.577,244.000 466.649 C 244.000 467.221,243.111 468.494,242.026 469.477 C 240.940 470.460,239.757 472.191,239.397 473.325 C 239.037 474.459,237.290 477.453,235.515 479.979 C 233.740 482.504,230.341 488.155,227.962 492.535 C 225.583 496.916,222.706 501.697,221.568 503.160 C 216.717 509.400,216.000 510.455,216.000 511.357 C 216.000 511.949,223.453 512.047,235.750 511.616 C 257.795 510.845,256.616 511.263,260.703 502.761 C 261.691 500.705,262.767 499.018,263.092 499.011 C 263.418 499.005,265.355 495.512,267.397 491.250 C 269.438 486.988,272.786 480.800,274.835 477.500 C 276.884 474.200,279.186 469.925,279.951 468.000 C 280.715 466.075,282.804 462.462,284.592 459.972 C 286.381 457.482,289.509 452.307,291.545 448.472 C 296.715 438.731,297.214 437.871,299.750 434.332 C 300.988 432.604,302.000 430.714,302.000 430.131 C 302.000 428.874,306.707 420.146,308.542 418.000 C 309.248 417.175,311.836 412.675,314.294 408.000 C 319.960 397.223,327.619 383.981,328.966 382.634 C 329.535 382.065,330.035 380.902,330.079 380.050 C 330.122 379.197,331.455 376.475,333.041 374.000 C 334.627 371.525,336.766 367.925,337.794 366.000 C 342.924 356.394,346.389 350.322,348.581 347.096 C 349.911 345.138,351.000 342.726,351.000 341.736 C 351.000 340.747,351.675 339.678,352.500 339.362 C 353.325 339.045,354.000 337.920,354.000 336.862 C 354.000 335.803,354.640 334.692,355.422 334.391 C 356.205 334.091,357.563 332.193,358.442 330.173 C 359.320 328.153,360.872 325.125,361.890 323.445 C 362.908 321.765,364.088 319.290,364.512 317.945 C 364.936 316.600,367.038 312.851,369.185 309.614 C 371.331 306.376,373.726 302.198,374.507 300.328 C 376.954 294.472,380.441 293.709,401.799 294.351 C 420.422 294.911,423.000 295.464,423.000 298.897 C 423.000 299.805,420.929 304.138,418.398 308.524 C 415.867 312.911,412.104 319.650,410.036 323.500 C 407.968 327.350,404.888 332.750,403.193 335.500 C 401.497 338.250,398.642 343.425,396.848 347.000 C 395.053 350.575,392.589 354.850,391.372 356.500 C 390.154 358.150,387.932 361.975,386.434 365.000 C 384.936 368.025,381.525 374.226,378.855 378.781 C 376.185 383.335,374.000 387.248,374.000 387.477 C 374.000 387.843,368.727 396.931,365.283 402.500 C 364.603 403.600,362.919 406.750,361.540 409.500 C 360.161 412.250,357.927 416.300,356.575 418.500 C 355.224 420.700,352.279 425.985,350.033 430.244 C 347.786 434.503,344.843 439.616,343.493 441.606 C 342.143 443.595,339.865 447.536,338.431 450.362 C 336.997 453.188,334.755 457.300,333.447 459.500 C 332.140 461.700,330.370 464.850,329.515 466.500 C 326.067 473.149,320.715 482.804,317.596 488.000 C 315.780 491.025,313.005 495.975,311.428 499.000 C 309.852 502.025,307.761 505.573,306.781 506.885 C 303.453 511.342,304.030 511.525,320.250 511.171 C 328.637 510.988,335.773 510.537,336.107 510.169 C 336.441 509.801,337.734 507.475,338.982 505.000 C 341.647 499.711,341.365 500.226,348.457 487.739 C 351.505 482.371,354.000 477.604,354.000 477.145 C 354.000 476.686,355.144 475.004,356.543 473.406 C 357.941 471.807,360.912 466.900,363.145 462.500 C 365.378 458.100,368.046 453.150,369.074 451.500 C 370.102 449.850,371.868 446.925,372.997 445.000 C 374.127 443.075,375.865 440.150,376.860 438.500 C 379.927 433.412,384.279 425.683,386.291 421.750 C 387.346 419.688,388.576 418.000,389.025 418.000 C 389.474 418.000,390.131 416.681,390.485 415.069 C 390.839 413.457,391.775 411.602,392.564 410.947 C 393.354 410.291,394.000 409.427,394.000 409.026 C 394.000 408.206,404.012 390.382,407.496 385.000 C 408.742 383.075,411.443 378.350,413.498 374.500 C 415.553 370.650,418.307 366.068,419.617 364.317 C 420.928 362.566,422.000 360.933,422.000 360.688 C 422.000 360.443,425.600 353.889,430.000 346.123 C 434.400 338.357,438.000 331.587,438.000 331.078 C 438.000 330.570,439.030 328.881,440.289 327.327 C 441.548 325.772,443.127 323.375,443.797 322.000 C 444.468 320.625,445.966 317.925,447.128 316.000 C 448.289 314.075,450.824 309.575,452.761 306.000 C 454.698 302.425,456.894 298.790,457.641 297.921 C 458.389 297.053,459.000 295.963,459.000 295.500 C 459.000 295.037,459.624 293.947,460.386 293.079 C 461.149 292.210,463.178 288.841,464.897 285.590 C 466.615 282.340,468.400 279.190,468.865 278.590 C 469.329 277.991,471.412 274.350,473.494 270.500 C 475.575 266.650,477.553 263.275,477.889 263.000 C 478.532 262.473,480.979 258.132,485.780 249.000 C 487.370 245.975,489.641 241.925,490.826 240.000 C 492.012 238.075,493.773 234.925,494.741 233.000 C 495.708 231.075,496.772 229.275,497.105 229.000 C 497.438 228.725,499.308 225.476,501.260 221.779 C 503.212 218.082,505.752 213.859,506.905 212.394 C 508.057 210.929,509.000 209.098,509.000 208.325 C 509.000 207.552,509.835 205.700,510.856 204.210 C 519.693 191.305,533.000 167.134,533.000 163.985 C 533.000 161.621,528.259 150.462,524.934 145.000 C 524.432 144.175,523.053 141.700,521.870 139.500 C 516.054 128.686,503.930 112.820,493.555 102.445 C 482.366 91.256,464.773 77.939,454.000 72.504 C 450.975 70.978,447.442 68.903,446.149 67.891 C 444.855 66.880,442.155 65.748,440.149 65.375 C 438.142 65.003,435.532 64.069,434.349 63.299 C 431.620 61.523,423.239 58.308,415.500 56.068 C 412.200 55.113,408.233 53.807,406.685 53.166 C 405.137 52.525,401.929 52.000,399.557 52.000 C 397.185 52.000,393.667 51.341,391.739 50.535 C 389.633 49.656,380.102 48.459,367.867 47.537 C 344.620 45.787,344.250 45.787,322.000 47.613 M569.000 170.273 C 567.573 170.984,564.998 174.338,563.000 178.093 C 552.094 198.581,530.572 237.100,517.513 259.500 C 514.628 264.450,501.697 287.175,488.779 310.000 C 475.861 332.825,464.140 353.525,462.733 356.000 C 461.326 358.475,458.049 364.325,455.452 369.000 C 452.854 373.675,449.291 379.975,447.533 383.000 C 445.775 386.025,441.270 394.125,437.522 401.000 C 429.085 416.474,414.048 443.269,404.131 460.500 C 400.017 467.650,394.019 478.450,390.803 484.500 C 387.586 490.550,383.165 498.358,380.978 501.850 C 376.409 509.145,375.838 513.638,379.105 516.595 C 381.146 518.442,384.105 518.497,475.855 518.391 C 559.813 518.294,571.742 518.089,581.500 516.573 C 598.719 513.898,605.738 512.318,616.500 508.696 C 635.761 502.214,644.423 497.872,662.663 485.559 C 671.495 479.596,689.762 460.749,696.641 450.500 C 701.970 442.561,713.000 420.774,713.000 418.187 C 713.000 417.660,713.636 416.004,714.412 414.506 C 715.715 411.995,719.234 398.227,721.953 385.000 C 724.336 373.405,725.359 347.748,724.177 329.205 C 720.847 276.978,704.846 240.560,672.646 211.926 C 646.851 188.987,618.558 175.665,584.500 170.422 C 573.453 168.721,572.146 168.708,569.000 170.273 M586.000 176.001 C 617.704 180.570,649.764 197.005,674.123 221.176 C 698.499 245.364,710.836 271.247,717.178 311.500 C 720.331 331.514,720.351 361.176,717.223 379.500 C 713.198 403.088,709.089 415.843,699.474 434.595 C 684.896 463.028,658.463 486.469,626.500 499.308 C 619.259 502.217,601.662 507.690,597.500 508.328 C 595.850 508.581,591.350 509.596,587.500 510.584 C 581.046 512.239,572.791 512.407,481.736 512.735 C 371.588 513.132,378.982 513.626,384.639 506.249 C 386.213 504.198,387.986 501.615,388.581 500.509 C 389.176 499.404,391.835 494.450,394.491 489.500 C 397.147 484.550,401.197 477.350,403.491 473.500 C 408.080 465.800,414.786 453.907,416.742 450.000 C 417.430 448.625,418.814 446.150,419.818 444.500 C 420.822 442.850,423.806 437.450,426.449 432.500 C 429.093 427.550,431.874 422.790,432.628 421.921 C 433.383 421.053,434.000 420.095,434.000 419.793 C 434.000 419.491,435.957 415.701,438.348 411.372 C 440.739 407.042,444.278 400.575,446.212 397.000 C 454.970 380.811,456.381 378.231,458.796 374.000 C 460.208 371.525,463.532 365.852,466.182 361.394 C 468.832 356.935,471.000 353.014,471.000 352.679 C 471.000 352.345,473.025 348.735,475.500 344.659 C 477.975 340.582,480.000 336.889,480.000 336.452 C 480.000 336.015,480.620 334.947,481.378 334.079 C 482.136 333.210,484.437 329.350,486.491 325.500 C 491.691 315.754,495.130 309.762,496.533 308.000 C 497.190 307.175,499.612 303.007,501.916 298.739 C 504.219 294.470,508.331 287.122,511.052 282.410 C 513.773 277.698,516.000 273.488,516.000 273.056 C 516.000 272.624,516.857 271.180,517.905 269.848 C 518.953 268.516,520.865 265.521,522.155 263.192 C 523.445 260.863,525.625 256.982,527.000 254.567 C 528.375 252.153,531.971 245.750,534.990 240.339 C 538.010 234.927,541.160 229.353,541.990 227.951 C 542.821 226.549,545.300 222.130,547.500 218.133 C 549.700 214.135,554.160 206.057,557.412 200.182 C 560.664 194.307,564.837 186.479,566.686 182.786 C 570.486 175.198,572.212 173.745,576.500 174.521 C 578.150 174.820,582.425 175.486,586.000 176.001 M219.870 494.242 C 219.210 495.476,216.719 499.166,214.335 502.442 C 209.542 509.030,208.729 513.539,211.829 516.345 C 213.849 518.173,224.380 518.392,245.500 517.043 C 255.225 516.422,253.993 516.321,234.872 516.170 C 211.131 515.983,210.307 515.777,211.922 510.422 C 213.072 506.612,215.871 501.198,217.078 500.452 C 218.169 499.777,222.290 492.000,221.556 492.000 C 221.289 492.000,220.530 493.009,219.870 494.242 " stroke="none" fill="#000000" fill-rule="evenodd"/>
</svg>